<svg focusable="false" width="48" height="48" viewBox="0 0 48 48" xmlns="http://www.w3.org/2000/svg"><g fill="none" fill-rule="evenodd"><g><g fill="#D8D8D8" opacity="0"><rect width="48" height="48"></rect></g><g transform="translate(12 12)"><rect fill="#D8D8D8" opacity="0" width="24" height="24"></rect><g transform="translate(2 13)" fill="currentColor"><path d="M3.02746439,4 C3.00931666,4.16416693 3,4.33099545 3,4.5 C3,4.66900455 3.00931666,4.83583307 3.02746439,5 L0,5 L0,4 L3.02746439,4 Z M13,4 L20,4 L20,5 L13,5 L13,4 Z" fill-opacity="0.2"></path><path d="M5.09842503,6.29819429 C5.0340931,6.05140089 5,5.7851211 5,5.5 C5,3.56700338 6.56700338,2 8.5,2 C8.7851211,2 9.05140089,2.0340931 9.29819429,2.09842503 C10.0278893,2.64566496 10.5,3.5176988 10.5,4.5 C10.5,6.15685425 9.15685425,7.5 7.5,7.5 C6.5176988,7.5 5.64566496,7.02788926 5.09842503,6.29819429 Z M11.1637159,7.11349161 C10.874061,7.51881791 10.5188179,7.87406095 10.1134916,8.16371592 C10.5772175,7.93004328 10.9300433,7.5772175 11.1637159,7.11349161 Z" fill-opacity="0.2"></path><path d="M7.5,7.5 C9.15685425,7.5 10.5,6.15685425 10.5,4.5 C10.5,2.84314575 9.15685425,1.5 7.5,1.5 C5.84314575,1.5 4.5,2.84314575 4.5,4.5 C4.5,6.15685425 5.84314575,7.5 7.5,7.5 Z M7.5,9 C5.01471863,9 3,6.98528137 3,4.5 C3,2.01471863 5.01471863,0 7.5,0 C9.98528137,0 12,2.01471863 12,4.5 C12,6.98528137 9.98528137,9 7.5,9 Z" fill-opacity="0.87"></path></g><g transform="rotate(-180 11 5.5)" fill="currentColor"><path d="M11.9725356,4 L20,4 L20,5 L11.9725356,5 C11.9906833,4.83583307 12,4.66900455 12,4.5 C12,4.33099545 11.9906833,4.16416693 11.9725356,4 Z M0,4 L2,4 L2,5 L0,5 L0,4 Z" fill-opacity="0.2"></path><g transform="rotate(-180 5 3.5)" fill-opacity="0.2"><path d="M0.0984250251,4.29819429 C0.0340930963,4.05140089 0,3.7851211 0,3.5 C0,1.56700338 1.56700338,0 3.5,0 C3.7851211,0 4.05140089,0.0340930963 4.29819429,0.0984250251 C5.02788926,0.645664963 5.5,1.5176988 5.5,2.5 C5.5,4.15685425 4.15685425,5.5 2.5,5.5 C1.5176988,5.5 0.645664963,5.02788926 0.0984250251,4.29819429 Z M6.16371592,5.11349161 C5.87406095,5.51881791 5.51881791,5.87406095 5.11349161,6.16371592 C5.5772175,5.93004328 5.93004328,5.5772175 6.16371592,5.11349161 Z"></path></g><path d="M7.5,7.5 C9.15685425,7.5 10.5,6.15685425 10.5,4.5 C10.5,2.84314575 9.15685425,1.5 7.5,1.5 C5.84314575,1.5 4.5,2.84314575 4.5,4.5 C4.5,6.15685425 5.84314575,7.5 7.5,7.5 Z M7.5,9 C5.01471863,9 3,6.98528137 3,4.5 C3,2.01471863 5.01471863,-3.6739404e-16 7.5,-3.6739404e-16 C9.98528137,-3.6739404e-16 12,2.01471863 12,4.5 C12,6.98528137 9.98528137,9 7.5,9 Z" fill-opacity="0.87"></path></g></g></g></g></svg>