<svg xmlns="http://www.w3.org/2000/svg" width="10" height="10"><path d="M 0 1.75 C 0 1.336 0.336 1 0.75 1 L 9.25 1 C 9.664 1 10 1.336 10 1.75 L 10 1.75 C 10 2.164 9.664 2.5 9.25 2.5 L 0.75 2.5 C 0.336 2.5 0 2.164 0 1.75 Z" fill="currentColor"></path><path d="M 0 5.25 C 0 4.836 0.336 4.5 0.75 4.5 L 5.25 4.5 C 5.664 4.5 6 4.836 6 5.25 L 6 5.25 C 6 5.664 5.664 6 5.25 6 L 0.75 6 C 0.336 6 0 5.664 0 5.25 Z" fill="currentColor"></path><path d="M 0 8.75 C 0 8.336 0.336 8 0.75 8 L 5.25 8 C 5.664 8 6 8.336 6 8.75 L 6 8.75 C 6 9.164 5.664 9.5 5.25 9.5 L 0.75 9.5 C 0.336 9.5 0 9.164 0 8.75 Z" fill="currentColor"></path></svg>