<svg xmlns="http://www.w3.org/2000/svg" width="10" height="10"><path d="M 0 1.75 C 0 1.336 0.336 1 0.75 1 L 9.25 1 C 9.664 1 10 1.336 10 1.75 L 10 1.75 C 10 2.164 9.664 2.5 9.25 2.5 L 0.75 2.5 C 0.336 2.5 0 2.164 0 1.75 Z" fill="currentColor"></path><path d="M 4 5.25 C 4 4.836 4.336 4.5 4.75 4.5 L 9.25 4.5 C 9.664 4.5 10 4.836 10 5.25 L 10 5.25 C 10 5.664 9.664 6 9.25 6 L 4.75 6 C 4.336 6 4 5.664 4 5.25 Z" fill="currentColor"></path><path d="M 4 8.75 C 4 8.336 4.336 8 4.75 8 L 9.25 8 C 9.664 8 10 8.336 10 8.75 L 10 8.75 C 10 9.164 9.664 9.5 9.25 9.5 L 4.75 9.5 C 4.336 9.5 4 9.164 4 8.75 Z" fill="currentColor"></path></svg>