<svg xmlns="http://www.w3.org/2000/svg" width="10" height="10"><path d="M 0 1.75 C 0 1.336 0.336 1 0.75 1 L 9.25 1 C 9.664 1 10 1.336 10 1.75 L 10 1.75 C 10 2.164 9.664 2.5 9.25 2.5 L 0.75 2.5 C 0.336 2.5 0 2.164 0 1.75 Z" fill="currentColor"></path><path d="M 2 5.25 C 2 4.836 2.336 4.5 2.75 4.5 L 7.25 4.5 C 7.664 4.5 8 4.836 8 5.25 L 8 5.25 C 8 5.664 7.664 6 7.25 6 L 2.75 6 C 2.336 6 2 5.664 2 5.25 Z" fill="currentColor"></path><path d="M 2 8.75 C 2 8.336 2.336 8 2.75 8 L 7.25 8 C 7.664 8 8 8.336 8 8.75 L 8 8.75 C 8 9.164 7.664 9.5 7.25 9.5 L 2.75 9.5 C 2.336 9.5 2 9.164 2 8.75 Z" fill="currentColor"></path></svg>