<svg focusable="false" width="48" height="48" xmlns="http://www.w3.org/2000/svg" viewBox="0 0 48 48"><g fill="currentColor" fill-rule="evenodd" stroke="none" stroke-width="1"><path fill-opacity="0.87" d="M14.73 18.86C13.293 19.503 11.624 20 10 20 2 20 0 13 0 10c.486.972 2.37 5.848 7.537 4.165C7.873 17.125 10.427 19 13 19c.6 0 1.177-.05 1.73-.14zM8.422 8.63a7.352 7.352 0 00-1.127 1.616L2.401 3.705c-.215-.287-.178-.807.072-1.056l.088-.088L8.5 8.5l-.078.13z" opacity="0.5" transform="translate(12 12) translate(2 2)"></path><path fill-opacity="0.87" d="M7.295 10.246c-.27.526-.48 1.09-.615 1.68L1.2 4.603c-.663-.885-.564-2.24.212-3.015l.176-.176c.78-.78 2.121-.881 3.015-.212l7.245 5.421a6.088 6.088 0 00-1.67.624L3.706 2.401c-.294-.22-.801-.184-1.056.072l-.176.176c-.25.25-.287.769-.072 1.056l4.894 6.54z" transform="translate(12 12) translate(2 2)"></path><path fill-opacity="0.87" d="M9.702 6.554c-.185-.869-.151-.71-.207-.955C8.88 2.902 8.145 2 6 2 3.98 2 2 4.08 2 6.5c0 2.294 1.835 4 4 4 1.545 0 2.915-.342 4.544-1.088-.332-.7-.578-1.619-.842-2.858z" opacity="0.5" transform="translate(12 12) translate(2 2) translate(7 7)"></path><path fill-opacity="0.25" d="M10.379 9.027c.053.135.108.263.165.385C8.914 10.158 7.545 10.5 6 10.5c-2.165 0-4-1.706-4-4 0-1.528.79-2.921 1.88-3.74-.882 2.084-1.025 6.482 6.499 6.267z" transform="translate(12 12) translate(2 2) translate(7 7)"></path><path fill-opacity="0.87" d="M9.702 6.554c-.185-.869-.151-.71-.207-.955C8.88 2.902 8.145 2 6 2 3.98 2 2 4.08 2 6.5c0 2.294 1.835 4 4 4 1.545 0 2.915-.342 4.544-1.088-.332-.7-.578-1.619-.842-2.858zM6 12C3.239 12 .5 9.842.5 6.5S3.239.5 6 .5c6.5 0 4 8 7 9.342C11 10.947 8.761 12 6 12z" transform="translate(12 12) translate(2 2) translate(7 7)"></path></g></svg>