<svg width="45" height="45" viewBox="0 0 32 32" xmlns="http://www.w3.org/2000/svg" xmlns:xlink="http://www.w3.org/1999/xlink" class="sc-kTUwUJ ljwnSF"><g fill="none" fill-rule="evenodd" stroke="none" stroke-width="1"><g fill="#E6E6E6" transform="translate(-8 -8)"><g transform="translate(8 8)"><g><path d="M.941 31.992h2.824v-.94L.941 31.05v-2.822h-.94v2.846s-.004.918.94.918"></path><path d="M31.974 31.051v-2.823h-.942v2.823h-2.823v.941h2.846s.919.003.919-.94"></path><path d="M4.62305882 31.9926588L8.38776471 31.9926588 8.38776471 31.0514824 4.62305882 31.0514824z"></path><path d="M9.32894118 31.9926588L13.0936471 31.9926588 13.0936471 31.0514824 9.32894118 31.0514824z"></path><path d="M14.0348235 31.9926588L17.7995294 31.9926588 17.7995294 31.0514824 14.0348235 31.0514824z"></path><path d="M18.7407059 31.9926588L22.5054118 31.9926588 22.5054118 31.0514824 18.7407059 31.0514824z"></path><path d="M23.4465882 31.9926588L27.2112941 31.9926588 27.2112941 31.0514824 23.4465882 31.0514824z"></path><path d="M0 .94v2.824h.941L.942.941h2.823V0H.919S0-.002 0 .94"></path><path d="M31.032 0H28.21v.94l2.823.002v2.822h.942V.92s.002-.92-.942-.92"></path><path d="M4.62305882 0.940423529L8.38776471 0.940423529 8.38776471 -0.000752941176 4.62305882 -0.000752941176z"></path><path d="M9.32894118 0.940423529L13.0936471 0.940423529 13.0936471 -0.000752941176 9.32894118 -0.000752941176z"></path><path d="M14.0348235 0.940423529L17.7995294 0.940423529 17.7995294 -0.000752941176 14.0348235 -0.000752941176z"></path><path d="M18.7407059 0.940423529L22.5054118 0.940423529 22.5054118 -0.000752941176 18.7407059 -0.000752941176z"></path><path d="M23.4465882 0.940423529L27.2112941 0.940423529 27.2112941 -0.000752941176 23.4465882 -0.000752941176z"></path><path d="M0 8.46324706L0.941176471 8.46324706 0.941176471 4.69854118 0 4.69854118z"></path><path d="M0 13.1691294L0.941176471 13.1691294 0.941176471 9.40442353 0 9.40442353z"></path><path d="M0 17.8750118L0.941176471 17.8750118 0.941176471 14.1103059 0 14.1103059z"></path><path d="M0 22.5808941L0.941176471 22.5808941 0.941176471 18.8161882 0 18.8161882z"></path><path d="M0 27.2867765L0.941176471 27.2867765 0.941176471 23.5220706 0 23.5220706z"></path><path d="M30.976 8.46324706L31.9171765 8.46324706 31.9171765 4.69854118 30.976 4.69854118z"></path><path d="M30.976 13.1691294L31.9171765 13.1691294 31.9171765 9.40442353 30.976 9.40442353z"></path><path d="M30.976 17.8750118L31.9171765 17.8750118 31.9171765 14.1103059 30.976 14.1103059z"></path><path d="M30.976 22.5808941L31.9171765 22.5808941 31.9171765 18.8161882 30.976 18.8161882z"></path><path d="M30.976 27.2867765L31.9171765 27.2867765 31.9171765 23.5220706 30.976 23.5220706z"></path></g></g></g></g></svg>