<svg xmlns="http://www.w3.org/2000/svg" width="87" height="87" viewBox="0 0 48 48"><g fill="none" fill-rule="evenodd" stroke="none" stroke-width="1"><g><path fill="#B8B8B8" d="M42 5a1 1 0 011 1v13a1 1 0 01-1 1H6a1 1 0 01-1-1V6a1 1 0 011-1h36zM21.505 18h-2.01a.494.494 0 00-.495.5c0 .268.222.5.495.5h2.01c.28 0 .495-.224.495-.5l-.008-.088a.503.503 0 00-.487-.412zm8.004 0h-5.018a.5.5 0 000 1h5.018a.5.5 0 00.491-.5l-.008-.088A.5.5 0 0029.51 18z"></path><rect width="22" height="11" x="20" y="29" fill="#B8B8B8" rx="1"></rect><rect width="13" height="10" x="6" y="23" fill="#B8B8B8" rx="1"></rect><rect width="22" height="5" x="20" y="23" fill="#B8B8B8" rx="1"></rect><rect width="7" height="7" x="9" y="14" fill="#E6E6E6" rx="1"></rect><rect width="13" height="9" x="6" y="34" fill="#B8B8B8" rx="1"></rect></g></g></svg>