<svg xmlns="http://www.w3.org/2000/svg" width="87" height="87" viewBox="0 0 48 48"><g fill="none" fill-rule="evenodd" stroke="none" stroke-width="1"><rect width="28" height="3" x="12" y="41" fill="#B8B8B8" rx="0.5" transform="matrix(-1 0 0 1 52 0)"></rect><rect width="34" height="28" x="7" y="8" fill="#E6E6E6" rx="0.5" transform="matrix(1 0 0 -1 0 44)"></rect><rect width="3" height="3" x="8" y="41" fill="#B8B8B8" rx="0.5" transform="matrix(-1 0 0 1 19 0)"></rect><rect width="28" height="3" x="12" y="37" fill="#B8B8B8" rx="0.5" transform="matrix(-1 0 0 1 52 0)"></rect><rect width="28" height="3" x="12" y="4" fill="#B8B8B8" rx="0.5" transform="matrix(1 0 0 -1 0 11)"></rect><rect width="3" height="3" x="8" y="37" fill="#B8B8B8" rx="0.5" transform="matrix(-1 0 0 1 19 0)"></rect><rect width="3" height="3" x="8" y="4" fill="#B8B8B8" rx="0.5" transform="matrix(1 0 0 -1 0 11)"></rect></g></svg>