<svg focusable="false" width="48" height="48" viewBox="0 0 48 48" xmlns="http://www.w3.org/2000/svg"><g fill="none" fill-rule="evenodd"><g><g fill="#D8D8D8" opacity="0"><rect width="48" height="48"></rect></g><g transform="translate(16 14)" fill="currentColor"><g><path d="M1.53468397,11.3244256 C2.30584171,10.1516526 4.0927284,8.69757613 8,10 C11.5643313,11.1881104 13.1877038,10.2588113 13.9183327,9.30853287 C14.2918933,10.1286474 14.5,11.0400207 14.5,12 C14.5,15.5898509 11.5898509,18.5 8,18.5 C4.41014913,18.5 1.5,15.5898509 1.5,12 C1.5,11.7718729 1.51175212,11.5464906 1.53468397,11.3244256 Z" fill-opacity="0.2"></path><path d="M1.53471819,12.6759057 C2.39408133,13.5811739 4.12541941,14.1109247 5.5,13.5 C9.81068889,11.5841383 9.99203585,9.66827654 14.3948028,10.8290113 C14.4639074,11.2088572 14.5,11.6002137 14.5,12 C14.5,15.5898509 11.5898509,18.5 8,18.5 C4.63838968,18.5 1.87279864,15.9481381 1.53471819,12.6759057 Z" fill-opacity="0.25"></path><path d="M11,1.44328993e-15 L11,4.58151705 C13.9318303,5.7682918 16,8.64262245 16,12 C16,16.418278 12.418278,20 8,20 C3.581722,20 0,16.418278 0,12 C0,8.64262245 2.06816966,5.7682918 5,4.58151705 L5,1.60982339e-15 L6.5,1.44328993e-15 L6.5,5.67393184 C3.6333,6.35109564 1.5,8.92641836 1.5,12 C1.5,15.5898509 4.41014913,18.5 8,18.5 C11.5898509,18.5 14.5,15.5898509 14.5,12 C14.5,8.92641836 12.3667,6.35109564 9.5,5.67393184 L9.5,1.77635684e-15 L11,1.44328993e-15 Z" fill-opacity="0.87"></path></g></g></g></g></svg>