<svg focusable="false" width="48" height="48" viewBox="0 0 48 48" xmlns="http://www.w3.org/2000/svg"><g fill="none" fill-rule="evenodd"><g><g fill="#D8D8D8" opacity="0"><rect width="48" height="48"></rect></g><g transform="translate(12 12)"><rect fill="#D8D8D8" opacity="0" width="24" height="24"></rect><g transform="translate(4 2)" fill="currentColor"><path d="M8.51312274,19.9836057 C8.77273397,19.9669655 9.02898229,19.9377873 9.2812837,19.8966625 C9.14309542,19.9643562 9.04607398,20 9,20 C8.83633495,20 8.67398178,19.9944755 8.51312274,19.9836057 Z M2.27242753,15.0235117 C2.09503729,14.4174909 2,13.7771617 2,13.115 C2,8.89625769 7.39855682,4.1952443 9.03524007,2.8669743 C9.66704719,3.45933018 10.2896864,4.09178959 10.8802638,4.75434357 C12.9939648,7.12565193 14.310818,9.45010207 14.481291,11.4644804 C14.4937541,11.6117488 14.5,11.7569175 14.5,11.9 C14.5,15.5490785 11.5855665,18.5 8,18.5 C5.525182,18.5 3.37015673,17.0943182 2.27242753,15.0235117 Z M15.999821,11.9547651 C15.9999402,11.9698392 16,11.9849176 16,12 C16,12.0581275 15.9984809,12.1163475 15.9954873,12.1746435 C15.9978914,12.1015915 15.9993401,12.0282946 15.999821,11.9547651 Z" fill-opacity="0.2"></path><path d="M3.47269084,16.6357644 C3.47244857,13.6389249 9.59189484,15.3529683 12,11.5 C13.2066771,9.56931667 12.316614,7.05620551 11.0727604,4.97270186 C13.0737756,7.26814668 14.316054,9.51197209 14.481291,11.4644804 C14.4937541,11.6117488 14.5,11.7569175 14.5,11.9 C14.5,15.5490785 11.5855665,18.5 8,18.5 C6.2411126,18.5 4.64375705,17.7899702 3.47269084,16.6357644 Z" fill-opacity="0.25"></path><path d="M7.73975027,2.16383649 C6.84545319,2.94914111 5.95084629,3.82194197 5.11973623,4.75434357 C3.00603518,7.12565193 1.68918197,9.45010207 1.51870896,11.4644804 C1.50624591,11.6117488 1.5,11.7569175 1.5,11.9 C1.5,15.5492218 4.41434886,18.5 8,18.5 C11.5855665,18.5 14.5,15.5490785 14.5,11.9 C14.5,11.7569175 14.4937541,11.6117488 14.481291,11.4644804 C14.310818,9.45010207 12.9939648,7.12565193 10.8802638,4.75434357 C10.0491537,3.82194197 9.15454681,2.94914111 8.26024973,2.16383649 C8.17157048,2.08596503 8.08476013,2.01060875 8,1.93784184 C7.91523987,2.01060875 7.82842952,2.08596503 7.73975027,2.16383649 Z M8,20 C3.581722,20 0,16.3735065 0,11.9 C0,6.05 8,0 8,0 C8,0 16,6.05 16,11.9 C16,16.3732777 12.418278,20 8,20 Z" fill-opacity="0.87"></path></g></g></g></g></svg>