<svg focusable="false" width="48" height="48" viewBox="0 0 48 48" xmlns="http://www.w3.org/2000/svg"><g fill="none" fill-rule="evenodd"><g transform="translate(15 15)" fill="currentColor"><g><polygon fill-opacity="0.2" points="3 3 12.5 1.5 12.5 15.5 1.5 15.5"></polygon><path d="M1.5,1.5 L1.5,15.5 L12.5,15.5 L12.5,1.5 L1.5,1.5 Z M0,0 L14,0 L14,17 L0,17 L0,0 Z" fill-opacity="0.87"></path><polygon fill-opacity="0.25" points="3 11 6 7 8 9 9 8.5 11 11"></polygon><circle fill-opacity="0.25" cx="9" cy="5" r="1"></circle><rect fill-opacity="0.25" x="3" y="13" width="8" height="1"></rect><g transform="rotate(14 -2.352 56.952)" fill-opacity="0.2"><path d="M1.32904158,1.07500967e-13 L5,1.07500967e-13 L5,14.7234101 L4,10.7126291 L4,1 L1.57836958,1 L1.32904158,1.07500967e-13 Z M5,14.9745817 L5,16 L0.887271787,16 L5,14.9745817 Z"></path><path d="M1.82769758,2 L3,2 L3,6.70184819 L1.82769758,2 Z"></path></g></g></g></g></svg>