<svg focusable="false" width="48" height="48" viewBox="0 0 48 48" xmlns="http://www.w3.org/2000/svg"><g fill="none" fill-rule="evenodd"><g transform="translate(15 15)" fill="currentColor"><path d="M13.5,4 L13.5,13.5 L4,13.5 L4,5 C4,4.44771525 4.44771525,4 5,4 L13.5,4 Z M15,4 L17,4 C17.5522847,4 18,4.44771525 18,5 L18,17 C18,17.5522847 17.5522847,18 17,18 L5,18 C4.44771525,18 4,17.5522847 4,17 L4,15 L14,15 C14.5522847,15 15,14.5522847 15,14 L15,4 Z" fill-opacity="0.2"></path><path d="M1.5,1.5 L1.5,13.5 L13.5,13.5 L13.5,1.5 L1.5,1.5 Z M1,0 L14,0 C14.5522847,-1.01453063e-16 15,0.44771525 15,1 L15,14 C15,14.5522847 14.5522847,15 14,15 L1,15 C0.44771525,15 6.76353751e-17,14.5522847 0,14 L0,1 C-6.76353751e-17,0.44771525 0.44771525,1.01453063e-16 1,0 Z" fill-opacity="0.87"></path></g></g></svg>