<svg focusable="false" width="48px" height="48px" version="1.1" xmlns="http://www.w3.org/2000/svg" viewBox="0 0 48 48"><g stroke="none" stroke-width="1" fill="none" fill-rule="evenodd"><g><g transform="translate(14.000000, 14.000000)" fill="currentColor"><g transform="translate(2.000000, 2.000000)" fill-opacity="0.2"><path d="M11.5840291,0.290311095 C14.1040281,1.4637822 15.9529364,3.83641178 16.3972985,6.6747443 C11.4538042,7.5567274 7.55733385,11.4556991 6.68374109,16.3973312 C3.83946575,15.9530468 1.46423317,14.1041207 0.290132399,11.5832649 C0.0988489957,10.7650202 3.01980663e-14,9.89786431 3.01980663e-14,9 C3.01980663e-14,6.64646143 0.903391324,4.50392121 2.38232909,2.90022422 C4.02683831,1.11698861 6.38297582,-3.55271368e-15 9,-3.55271368e-15 C9.89814387,-3.55271368e-15 10.7655602,0.0989105588 11.5840291,0.290311095 Z"></path><path d="M17.9877222,8 L8,17.9877222 C8.2591955,12.5923102 12.5906864,8.26470667 17.9877222,8 Z"></path></g><path d="M9.87290303,14.9211604 C9.09408801,14.4293124 5,11.7146562 5,9 C5,7.34 6.34,6 8,6 C8.77,6 9.47,6.52 10,7 C10.53,6.52 11.23,6 12,6 C13.66,6 15,7.34 15,9 C15,9.30171667 14.9494261,9.60343334 14.8584511,9.90209822 C12.7354304,11.0373368 10.9933363,12.7905402 9.87290303,14.9211604 Z" fill-opacity="0.25"></path><path d="M10,1.5 C5.30557963,1.5 1.5,5.30557963 1.5,10 C1.5,14.2449983 4.61102233,17.7611603 8.68374109,18.3973312 C9.55733385,13.4556991 13.4538042,9.5567274 18.3972985,8.6747443 C17.7608961,4.60976745 14.2436106,1.5 10,1.5 Z M0,10 C0,4.4771525 4.4771525,0 10,0 C15.5228475,0 20,4.4771525 20,10 C14.5988732,10.2649073 10.2649073,14.5988732 10.0116954,19.9999933 C4.4771525,20 0,15.5228475 0,10 Z" fill-opacity="0.87"></path></g></g></g></svg>