<svg xmlns="http://www.w3.org/2000/svg" viewBox="0 0 48 48" focusable="false" width="48" height="48"><g fill="currentColor" fill-rule="evenodd" stroke="none" stroke-width="1"><path fill-opacity="0.2" d="M17.883 19.5H16.07L11.702 6.833l1.235-1.411L17.883 19.5z" transform="translate(12 12)"></path><path fill-opacity="0.87" d="M10.8 8.818L8.483 14.5h4.275l-1.96-5.682zM10 6.5l3.5-4 5.973 17H21V21h-8v-1.5h1.483L13.276 16H7.873l-1.426 3.5H8V21H3v-1.5h1.704L10 6.5zm1.702.333L16.069 19.5h1.814L12.937 5.422l-1.235 1.411z" transform="translate(12 12)"></path><path fill-opacity="0.2" d="M19.55 15l-.35-1H21v1h-1.45zm1.05 3l-.35-1H21v1h-.4zM7.639 8L7.25 9H3V8h4.639zm1.167-3l-.39 1H7V5h1.806zm-2.334 6l-.389 1H6v-1h.472zm-1.166 3l-.39 1H3v-1h2.306zm-1.167 3l-.389 1H3v-1h1.139zM15.35 3L15 2h1v1h-.65zm3.15 9l-.35-1H21v1h-2.5zm-1.05-3l-.35-1H21v1h-3.55zM16.4 6l-.35-1H18v1h-1.6zm-5.9-3H9V2h2.5l-1 1zM3 5h3v1H3V5zm16 0h2v1h-2V5zM3 11h2v1H3v-1zm18-8h-4V2h4v1zM8 3H3V2h5v1z" transform="translate(12 12)"></path></g></svg>