<svg focusable="false" width="48" height="48" viewBox="0 0 48 48" xmlns="http://www.w3.org/2000/svg"><g fill="currentColor" fill-rule="evenodd" stroke="none" stroke-width="1"><path fill-opacity="0.87" d="M1 0h14a1 1 0 011 1v19l-8-6-8 6V1a1 1 0 011-1zm.5 1.5V17L8 12.125 14.5 17V1.5h-13z" transform="translate(14 14) translate(2)"></path><path fill-opacity="0.2" d="M1.5 1.5h13V17L8 12.125 1.5 17V1.5z" transform="translate(14 14) translate(2)"></path><path fill-opacity="0.25" d="M9 4l2.52 7H10.2l-.7-1.85H6.45L5.77 11H4.49L6.9 4H9zm-1.04.78h-.05L6.73 8.14H9.2L7.96 4.78z" transform="translate(14 14) translate(2)"></path></g></svg>