<svg focusable="false" width="48" height="48" xmlns="http://www.w3.org/2000/svg" viewBox="0 0 48 48"><g fill="currentColor" fill-rule="evenodd" stroke="none" stroke-width="1" transform="translate(12 12)"><path fill-opacity="0.2" d="M10 10L15 9 15 15 9 15z"></path><path fill-opacity="0.87" d="M9 15h6V9H9v6zm-1.5 0V7.5H15V3h1.5v13.5H3V15h4.5zm0 2.5H9V21H7.5v-3.5zM21 7.5V9h-3.5V7.5H21z"></path><g fill-opacity="0.2"><path d="M0 10h1a9.003 9.003 0 015.5-8.294L7 3 10.942.044C10.632.014 10.318 0 10 0 4.477 0 0 4.477 0 10z" transform="translate(2 2)"></path><path d="M9 20h1a9.003 9.003 0 015.5-8.294L16 13l3.942-2.956c-.31-.03-.624-.044-.942-.044-5.523 0-10 4.477-10 10z" transform="translate(2 2) rotate(-180 14.47 15)"></path></g></g></svg>